<?xml version="1.0" encoding="utf-8"?>
<!-- Svg Vector Icons : http://www.onlinewebfonts.com/icon -->
<!DOCTYPE svg PUBLIC "-//W3C//DTD SVG 1.1//EN" "http://www.w3.org/Graphics/SVG/1.1/DTD/svg11.dtd">
<svg version="1.1" xmlns="http://www.w3.org/2000/svg" xmlns:xlink="http://www.w3.org/1999/xlink" x="0px" y="0px" viewBox="0 0 256 256" enable-background="new 0 0 256 256" xml:space="preserve">
<metadata> Svg Vector Icons : http://www.onlinewebfonts.com/icon </metadata>
<g> <path fill="#9d9c9c" d="M27.3,142.4c-0.7-4.7-1-9.5-1-14.5C26.3,71.8,71.8,26.3,128,26.3c56.2,0,101.7,45.5,101.7,101.7 c0,4.9-0.3,9.7-1,14.5c10.1,5,14.5,15,13.2,14.9c-6.3-1.4-11.7-1.5-16.4-0.3C213,199,174.1,229.7,128,229.7 c-46.1,0-85-30.7-97.5-72.7c-4.6-1.1-10.1-1-16.4,0.3C12.8,157.4,17.1,147.5,27.3,142.4z"/> <path fill="#525252" d="M128,233.7c-11.7,0-23.2-1.9-34.2-5.7c-10.6-3.6-20.6-8.9-29.5-15.7c-8.9-6.7-16.6-14.8-23-23.9 c-6-8.6-10.6-18-13.8-27.9c-3.6-0.5-7.7-0.3-12.4,0.8l-0.3,0.1l-0.3,0c-2,0.1-3.8-1.2-4.3-3.1c-0.8-3,2-7.2,3.7-9.5 c1.8-2.4,4.9-5.7,9.2-8.3c-0.5-4.1-0.7-8.2-0.7-12.3c0-14.3,2.8-28.1,8.3-41.1C36,74.3,43.6,63,53.3,53.3 c9.7-9.7,21-17.3,33.6-22.6c13-5.5,26.9-8.3,41.1-8.3s28.1,2.8,41.1,8.3c12.6,5.3,23.9,12.9,33.6,22.6c9.7,9.7,17.3,21,22.6,33.6 c5.5,13,8.3,26.9,8.3,41.1c0,4.1-0.2,8.2-0.7,12.3c4.4,2.7,7.4,5.9,9.2,8.3c1.7,2.3,4.5,6.6,3.7,9.5c-0.5,2-2.3,3.2-4.3,3.1l-0.3,0 l-0.3-0.1c-4.7-1-8.8-1.3-12.4-0.8c-3.2,9.9-7.8,19.3-13.8,27.9c-6.4,9.1-14.1,17.2-23,23.9c-9,6.8-18.9,12.1-29.5,15.7 C151.2,231.8,139.7,233.7,128,233.7z M23.6,152.2c2.8,0,5.4,0.3,7.8,0.9l2.2,0.6l0.6,2.2c3,10,7.5,19.4,13.5,28 c5.9,8.5,13.1,15.9,21.3,22.1c17.1,12.9,37.5,19.8,59,19.8c21.5,0,41.9-6.8,59-19.8c8.2-6.2,15.4-13.7,21.3-22.1 c6-8.6,10.5-18,13.5-28l0.6-2.2l2.2-0.6c3.1-0.8,6.6-1,10.4-0.8c-1.8-2.2-4.5-4.6-8-6.3l-2.6-1.3l0.4-2.8c0.7-4.6,1-9.2,1-13.9 c0-13.2-2.6-26-7.7-38c-4.9-11.7-12-22.1-21-31.1c-9-9-19.4-16-31.1-21c-12-5.1-24.9-7.7-38-7.7c-13.2,0-26,2.6-38,7.7 c-11.7,4.9-22.1,12-31.1,21s-16,19.4-21,31.1c-5.1,12-7.7,24.9-7.7,38c0,4.6,0.3,9.3,1,13.9l0.4,2.8L29,146c-3.5,1.7-6.2,4.1-8,6.3 C21.9,152.3,22.8,152.2,23.6,152.2z"/> <path fill="#ffffff" d="M79.1,215.2v-68.8c-15.5-6.2-26.4-21.3-26.4-39c0-23.2,18.8-42,42-42c13.6,0,25.6,6.4,33.3,16.4 c7.7-10,19.7-16.4,33.3-16.4c23.2,0,42,18.8,42,42c0,18.1-11.4,33.5-27.5,39.4v68.9C161.6,223,145.3,227,128,227 C110.3,227,93.6,222.8,79.1,215.2z"/> <path fill="#525252" d="M128,229.4c-17.5,0-34.8-4.2-50-12.2l-1.3-0.7V148c-7.5-3.3-13.9-8.6-18.6-15.4c-5.1-7.4-7.8-16.1-7.8-25.2 C50.3,82.9,70.2,63,94.7,63c12.9,0,24.9,5.4,33.3,15c8.4-9.6,20.4-15,33.3-15c24.5,0,44.4,19.9,44.4,44.4c0,9.2-2.8,18.1-8.2,25.7 c-4.9,6.9-11.5,12.2-19.3,15.4v68.8l-1.3,0.7C162,225.4,145.1,229.4,128,229.4z M81.5,213.7c14.2,7.2,30.2,10.9,46.5,10.9 c15.9,0,31.5-3.6,45.4-10.4v-69.1l1.6-0.6c7.5-2.8,14-7.7,18.6-14.3c4.8-6.7,7.3-14.6,7.3-22.9c0-21.8-17.8-39.6-39.6-39.6 c-12.4,0-23.8,5.6-31.4,15.5l-1.9,2.4l-1.9-2.4c-7.6-9.8-19-15.5-31.4-15.5c-21.8,0-39.6,17.8-39.6,39.6c0,8.1,2.4,15.9,7,22.5 c4.5,6.5,10.7,11.4,17.9,14.3l1.5,0.6V213.7L81.5,213.7z"/> <path fill="#d16b54" d="M89.9,136c21.1,33.2,56.8,31.1,76.2,0c0.7,0-11.9-5.4-37.8-16.2C102,130.6,89.2,136,89.9,136z"/> <path fill="#525252" d="M127.9,162.3c-7.4,0-14.6-2.1-21.3-6.2c-7-4.3-13.2-10.6-18.4-18.7c-0.2-0.3-0.4-0.6-0.4-0.9 c-0.3-1.7,1.1-2.4,1.7-2.7c0.4-0.2,1-0.5,1.8-0.8c1.6-0.7,4-1.7,7.2-3.1c6.4-2.7,16.1-6.7,28.8-11.9l0.8-0.3l0.8,0.3 c12.6,5.3,22.2,9.3,28.4,11.9c3.1,1.3,5.5,2.4,7.1,3.1c0.8,0.4,1.4,0.6,1.8,0.8c0.6,0.3,2,1,1.7,2.6l-0.3,1.7h-0.6 c-9.9,15.3-24.1,24.1-39.1,24.1C128.1,162.3,128,162.3,127.9,162.3L127.9,162.3z M93,136.9c9.4,13.7,21.7,21.2,35,21.2h0.2 c13.2-0.1,25.9-7.7,34.9-21.2c-3.4-1.5-12.3-5.4-34.8-14.7C105.5,131.5,96.4,135.3,93,136.9z"/> <path fill="#f29137" d="M89.8,134.2c21,21,55.1,21,76.2,0c0.7,0-11.9-5.4-37.8-16.2C101.9,128.8,89.1,134.2,89.8,134.2z"/> <path fill="#525252" d="M127.9,152.1c-14.9,0-28.9-5.8-39.4-16.2c-0.4-0.3-0.6-0.7-0.7-1.2c-0.3-1.7,1.1-2.4,1.7-2.7 c0.4-0.2,1-0.5,1.8-0.8c1.6-0.7,4-1.7,7.2-3.1c6.4-2.7,16.1-6.7,28.8-11.9l0.8-0.3l0.8,0.3c12.6,5.3,22.2,9.3,28.4,11.9 c3.1,1.3,5.5,2.4,7.1,3.1c0.8,0.4,1.4,0.6,1.8,0.8c0.6,0.3,2,1,1.7,2.6l-0.3,1.7h-0.9C156.4,146.5,142.6,152.1,127.9,152.1 L127.9,152.1z M93.5,134.7c9.5,8.5,21.6,13.1,34.4,13.1c12.8,0,24.9-4.6,34.4-13.1c-3.8-1.7-13-5.6-34.2-14.5 C106.6,129.1,97.4,133,93.5,134.7z"/> <path fill="#525252" d="M81.8,100.2c0,3.6,3,6.6,6.6,6.6s6.6-3,6.6-6.6l0,0c0-3.6-3-6.6-6.6-6.6S81.8,96.6,81.8,100.2L81.8,100.2z" /> <path fill="#525252" d="M161,100.2c0,3.6,3,6.6,6.6,6.6s6.6-3,6.6-6.6l0,0c0-3.6-3-6.6-6.6-6.6S161,96.6,161,100.2L161,100.2z"/></g>
</svg>